<svg id="Layer_1" data-name="Layer 1" xmlns="http://www.w3.org/2000/svg" viewBox="0 0 633 625.75"><defs><style>.cls-1{fill:#fee465;}.cls-2{fill:none;stroke:#231f20;stroke-linecap:round;stroke-linejoin:round;stroke-width:6.98px;}</style></defs><title>icon-lightbulb</title><path class="cls-1" d="M367.46,494.1c0-19.39-1.95-31-1.95-31s25.19-34.87,27.14-83.3c0-7.7,3.76-62.34-62-64.79a7.85,7.85,0,0,0-1,0c-65.73,2.45-62,57.09-62,64.79,1.93,48.43,27.14,83.3,27.14,83.3s-2,11.59-2,31c-104.58,25.17-119.1,60-119.1,60V616H486.56V554.14S472.06,519.27,367.46,494.1Z"/><circle class="cls-1" cx="478.49" cy="275.33" r="10.84"/><circle class="cls-1" cx="523.98" cy="275.33" r="10.84"/><circle class="cls-1" cx="568.88" cy="275.33" r="10.84"/><circle class="cls-1" cx="336.43" cy="91.3" r="10.84"/><circle class="cls-1" cx="381.91" cy="91.3" r="10.84"/><circle class="cls-1" cx="426.81" cy="91.3" r="10.84"/><circle class="cls-1" cx="82.02" cy="204.46" r="10.84"/><circle class="cls-1" cx="127.5" cy="204.46" r="10.84"/><circle class="cls-1" cx="172.4" cy="204.46" r="10.84"/><path class="cls-2" d="M515.3,192.92c-60.69,0-109.88,37.44-109.88,83.57,0,15.36,5.53,29.69,15,42.05L405.77,367.8,467,351.49a138.58,138.58,0,0,0,48.35,8.6c60.68,0,109.87-37.42,109.87-83.6S576,192.92,515.3,192.92Z"/><path class="cls-2" d="M480.17,275.32a7.86,7.86,0,1,1-7.86-7.86A7.86,7.86,0,0,1,480.17,275.32Z"/><path class="cls-2" d="M525.68,275.32a7.88,7.88,0,1,1-7.88-7.86A7.88,7.88,0,0,1,525.68,275.32Z"/><path class="cls-2" d="M570.59,275.32a7.87,7.87,0,1,1-7.88-7.86A7.88,7.88,0,0,1,570.59,275.32Z"/><path class="cls-2" d="M373.32,9C312.64,9,263.45,46.45,263.45,92.6c0,15.35,6.85,33,15,42.05,16.87,18.76,41.23,28.24,41.23,28.24l9.43,63.54,44.21-50.25c60.68,0,109.88-37.4,109.88-83.58S434,9,373.32,9Z"/><circle class="cls-2" cx="331.27" cy="91.3" r="7.86"/><path class="cls-2" d="M384.62,91.3a7.87,7.87,0,1,1-7.86-7.87A7.85,7.85,0,0,1,384.62,91.3Z"/><path class="cls-2" d="M429.53,91.3a7.88,7.88,0,1,1-7.86-7.87A7.87,7.87,0,0,1,429.53,91.3Z"/><path class="cls-2" d="M120.44,125.3c60.7,0,109.87,37.44,109.87,83.58,0,15.37-5.54,29.69-15,42.05L230,300.19,168.8,283.88a138.14,138.14,0,0,1-48.36,8.58c-60.68,0-109.86-37.39-109.86-83.58S59.76,125.3,120.44,125.3Z"/><path class="cls-2" d="M85.36,205a7.87,7.87,0,1,1-7.87-7.86A7.87,7.87,0,0,1,85.36,205Z"/><path class="cls-2" d="M130.87,205A7.87,7.87,0,1,1,123,197.1,7.89,7.89,0,0,1,130.87,205Z"/><path class="cls-2" d="M175.78,205a7.88,7.88,0,1,1-7.89-7.86A7.89,7.89,0,0,1,175.78,205Z"/><path class="cls-2" d="M349.46,491.1c0-19.39-1.95-31-1.95-31s25.19-34.87,27.14-83.3c0-7.7,3.76-62.34-62-64.79a7.85,7.85,0,0,0-1,0c-65.73,2.45-62,57.09-62,64.79,1.93,48.43,27.14,83.3,27.14,83.3s-2,11.59-2,31c-104.58,25.17-119.1,60-119.1,60V613H468.56V551.14S454.06,516.27,349.46,491.1Z"/></svg>