<svg id="Layer_1" data-name="Layer 1" xmlns="http://www.w3.org/2000/svg" viewBox="0 0 662.28 582.56"><defs><style>.cls-1{fill:#fee465;}.cls-2{fill:none;stroke:#231f20;stroke-linecap:round;stroke-linejoin:round;stroke-width:8px;}.cls-3{fill:#6063ad;}</style></defs><title>icon-lightbulb</title><path class="cls-1" d="M650.9,508.3V191.85c0-26.86-14.46-40.53-42.84-40.53H462.44c-28.38,0-42.84,13.67-42.84,40.53V508.3Z"/><path class="cls-1" d="M558.68,55H65.56C47.11,55,32.14,69.22,32.14,86.73v274L407.24,362V172.65A35.36,35.36,0,0,1,410,159l.15-.38c5.59-13,18.74-21.75,33.62-22.42a30.17,30.17,0,0,1,5.13.21,33.9,33.9,0,0,1,8.21-1H592.11V86.73C592.11,69.22,577.14,55,558.68,55Z"/><path class="cls-2" d="M351.12,435.43l-.27,38.3,20.7,36c0,4.88-4,3.76-8.86,3.76H221.92c-4.91,0-8.87,1.12-8.87-3.76l20.7-36.23-.27-37.74"/><path class="cls-2" d="M403,435.29H46.66A33.3,33.3,0,0,1,13.36,402V73.1a33.31,33.31,0,0,1,33.3-33.3H537.92a33.31,33.31,0,0,1,33.3,33.3v62.06"/><path class="cls-2" d="M13.36,362H402.44"/><path class="cls-2" d="M631,524.72c0,28-14.25,42.21-42.22,42.21H445.26c-28,0-42.22-14.22-42.22-42.21V178.53c0-28,14.25-42.18,42.22-42.18H588.8c28,0,42.22,14.22,42.22,42.18Z"/><line class="cls-2" x1="627.13" y1="504.26" x2="403.04" y2="504.67"/><rect class="cls-3" x="413.6" y="341.29" width="0.01" height="0.01" transform="translate(827.22 682.6) rotate(180)"/></svg>