<svg width="1168" height="177" viewBox="0 0 1168 177" fill="none" xmlns="http://www.w3.org/2000/svg">
<rect width="1168" height="177" fill="white"/>
<g clip-path="url(#clip0)">
<path d="M16 51.537C20.8798 51.7053 25.5913 52.0421 30.3028 52.7156V29.3117H124.533V52.3788C129.245 51.0319 133.956 49.8532 138.836 49.0114V15H16V51.537ZM16.1683 95.1456V109.457C41.4085 110.636 64.2931 121.243 81.2882 137.912H100.471C80.4468 112.825 50.1585 96.4926 16.1683 95.1456V95.1456Z" fill="#008A49"/>
<path d="M16.1683 67.364V81.5074C58.2354 83.0227 95.2545 104.911 117.466 137.744H138.836V122.59C134.966 123.937 131.264 125.453 127.562 127.305C124.701 123.264 121.841 119.56 118.644 115.856C125.038 112.488 131.937 109.794 138.836 107.942V93.2935C128.235 95.8191 117.971 99.86 108.379 105.248C104.846 101.881 101.144 98.8498 97.2737 95.9875C110.062 87.9056 124.028 82.3492 138.668 79.3185V64.8384C119.317 68.3743 100.976 75.9511 84.4853 87.4004C64.2931 75.2776 41.072 68.0375 16.1683 67.364ZM16.1683 137.912H59.9181C47.298 129.325 32.3221 123.937 16.1683 123.096V137.912V137.912Z" fill="#008A49"/>
<path d="M245.518 100.197C251.744 97.3345 254.436 90.7679 254.436 84.7065C254.436 78.4767 251.408 72.4152 246.023 68.8794C241.143 65.6803 235.086 64.8384 229.196 64.8384H200.086V138.081H229.196C236.263 138.081 242.994 137.407 248.715 133.198C253.932 129.157 256.119 123.264 256.119 116.866C255.951 109.794 252.417 103.396 245.518 100.197ZM213.211 76.2878H229.533C235.59 76.2878 240.807 78.4767 240.807 85.5483C240.807 92.4516 235.759 94.6405 229.869 94.6405H213.211V76.2878V76.2878ZM229.701 126.126H213.379V105.753H230.206C237.273 105.753 242.658 108.615 242.658 116.361C242.489 123.769 235.759 126.126 229.701 126.126V126.126ZM278.331 110.973C278.331 102.386 283.042 95.8191 292.129 95.8191C293.643 95.8191 295.157 95.9875 296.504 96.3242V84.033C295.157 83.8646 293.811 83.6962 292.465 83.6962C286.239 83.6962 279.845 86.2218 277.321 92.4516L276.143 84.3697H265.206V137.912H278.162L278.331 110.973V110.973ZM302.898 63.6598H316.696V76.9613H302.898V63.6598ZM303.403 84.3697H316.528V137.912H303.403V84.3697ZM363.474 132.019L364.316 137.912H375.422V63.4915H362.633V88.0739C360.446 85.2116 355.398 83.0227 348.667 83.0227C343.282 83.0227 338.907 84.7065 335.542 87.4004C329.148 92.62 325.951 100.87 325.951 111.309C325.951 121.412 328.979 129.494 335.374 134.713C338.739 137.407 343.114 139.259 348.499 139.259C354.388 139.091 360.277 136.902 363.474 132.019V132.019ZM351.023 128.315C346.984 128.315 344.292 126.463 342.441 124.106C339.749 120.57 339.076 115.687 339.076 110.973C339.076 106.258 339.749 101.544 342.441 98.008C344.292 95.6507 347.152 93.7986 351.023 93.7986C361.119 93.7986 363.138 103.228 363.138 110.973C363.138 118.718 361.119 128.315 351.023 128.315ZM384.508 146.836C384.508 151.887 386.864 155.76 391.071 158.622C396.623 162.495 403.522 163 410.085 163C422.032 163 435.998 159.127 435.998 145.152C435.998 139.933 434.147 135.387 429.436 132.188C424.388 128.652 417.32 128.652 412.104 128.652H403.018C400.325 128.652 397.128 127.978 397.128 124.779C397.128 123.096 398.643 121.749 399.82 120.907C402.513 121.917 405.542 122.422 408.402 122.422C420.013 122.422 430.277 115.182 430.277 102.891C430.277 99.3549 429.267 96.1559 427.417 93.1251C428.258 90.5995 430.95 89.7577 433.979 89.7577C434.316 89.7577 434.652 89.926 434.989 89.926V79.992C434.147 79.8237 432.296 79.8237 431.455 79.8237C426.912 79.8237 422.873 81.8441 420.518 86.5586C416.984 84.5381 412.777 83.1911 408.402 83.1911C396.287 83.1911 386.527 90.0944 386.527 102.891C386.527 108.279 388.546 112.825 391.912 116.024C387.537 118.718 385.518 122.254 385.518 126.8C385.518 130.336 387.537 134.04 390.902 135.892C386.696 137.912 384.508 142.122 384.508 146.836V146.836ZM408.402 92.62C414.292 92.62 417.825 96.8293 417.825 102.554C417.825 108.279 414.292 112.488 408.402 112.488C402.513 112.488 398.979 108.447 398.979 102.554C398.979 96.661 402.513 92.62 408.402 92.62ZM400.662 138.754H410.758C415.638 138.754 423.546 138.754 423.546 145.321C423.546 152.392 414.46 152.729 409.412 152.729C404.364 152.729 395.95 152.056 395.95 145.321C395.95 141.953 397.97 139.596 400.662 138.754ZM480.926 131.683C482.945 129.157 485.133 124.948 485.469 121.749H473.186C472.681 123.769 471.671 125.116 470.662 126.295C468.811 128.147 466.623 128.82 462.753 128.82C459.219 128.82 456.695 127.305 454.844 125.453C452.32 122.927 450.806 119.055 450.974 115.014H486.815C486.815 113.835 486.984 111.478 486.984 111.478C487.152 104.743 486.311 98.6814 482.272 92.7884C477.897 86.0535 470.662 82.8544 462.753 82.8544C455.517 82.8544 449.628 85.5483 445.59 89.5893C440.373 94.8089 437.849 102.554 437.849 110.973C437.849 119.728 440.71 127.305 446.094 132.356C450.301 136.397 455.686 138.923 462.921 138.923C469.652 139.259 476.383 137.071 480.926 131.683ZM453.498 97.3345C455.349 94.8089 458.546 93.2935 462.416 93.2935C466.118 93.2935 468.811 94.4721 470.493 96.3242C472.512 98.5131 473.69 101.712 473.859 105.753H450.638C450.806 102.217 451.647 99.6917 453.498 97.3345ZM537.969 121.243C537.969 112.825 531.743 107.437 523.33 106.09C518.113 105.248 516.767 105.08 511.887 104.575C509.027 104.238 505.661 103.059 505.661 99.1866C505.661 96.3242 507.512 94.4721 509.7 93.4619C511.719 92.62 513.402 92.62 515.253 92.62C517.945 92.62 520.637 93.6303 522.32 95.1456C523.498 96.4926 524.507 98.1763 524.507 100.197H536.791C536.791 96.3242 534.94 92.2833 532.08 89.2525C528.209 85.0432 521.647 83.0227 515.253 83.0227C508.522 83.0227 502.969 85.0432 498.931 88.4107C495.734 91.273 493.546 94.9772 493.546 100.534C493.546 107.268 498.426 113.33 505.83 114.845C510.541 115.856 515.926 116.192 520.637 116.866C524.003 117.371 526.022 119.391 526.022 122.59C526.022 128.484 519.459 129.325 515.084 129.325C511.383 129.325 509.027 128.652 507.008 126.968C505.325 125.621 504.147 123.096 504.147 120.738H492.032C492.032 125.79 494.556 130.167 497.753 133.198C502.128 137.407 508.185 139.428 515.084 139.428C522.32 139.428 529.051 137.576 533.426 133.198C536.118 130.336 537.969 126.463 537.969 121.243V121.243ZM599.723 137.239V126.463C596.19 126.8 594.002 126.968 591.31 126.968C587.272 126.968 585.252 125.284 585.252 121.075V94.9772H598.714V84.3697H585.252V70.7315H572.296V84.3697H562.873V94.9772H572.632V122.254C572.632 132.524 578.017 138.754 588.786 138.754C592.656 138.586 596.19 138.081 599.723 137.239V137.239ZM629.17 139.259C637.247 139.259 644.146 135.387 647.848 130.841C651.887 125.79 654.074 120.065 654.074 110.973C654.074 101.881 651.887 96.1559 647.848 91.1047C644.146 86.5586 637.247 82.686 629.17 82.686C621.094 82.686 614.195 86.5586 610.493 91.1047C606.454 96.1559 604.267 101.881 604.267 110.973C604.267 120.065 606.454 125.79 610.493 130.841C614.026 135.387 620.925 139.259 629.17 139.259ZM620.925 97.6712C622.608 95.8191 625.637 94.3037 629.002 94.3037C632.536 94.3037 635.396 95.8191 637.079 97.6712C640.108 101.039 640.949 106.09 640.949 111.141C640.949 116.192 640.276 121.243 637.079 124.611C635.396 126.463 632.368 127.978 629.002 127.978C625.469 127.978 622.608 126.463 620.925 124.611C617.896 121.243 617.055 116.192 617.055 111.141C617.055 106.09 617.896 101.039 620.925 97.6712ZM708.762 64.8384H680.156V137.912H693.281V111.815H708.762C725.588 111.815 734.507 102.386 734.507 88.2423C734.507 74.2673 725.588 64.8384 708.762 64.8384V64.8384ZM708.257 100.028H693.281V76.4562H708.257C717.175 76.4562 721.213 81.339 721.213 88.2423C721.045 95.314 717.175 100.028 708.257 100.028ZM753.353 92.4516L752.175 84.3697H741.237V137.912H754.194V110.973C754.194 102.386 758.905 95.8191 767.992 95.8191C769.506 95.8191 771.021 95.9875 772.367 96.3242V84.033C771.021 83.8646 769.675 83.6962 768.329 83.6962C762.103 83.6962 755.708 86.2218 753.353 92.4516V92.4516ZM801.309 83.0227C793.232 83.0227 786.333 86.8953 782.631 91.4414C778.593 96.4926 776.405 102.217 776.405 111.309C776.405 120.402 778.593 126.126 782.631 131.177C786.333 135.724 793.232 139.596 801.309 139.596C809.386 139.596 816.285 135.724 819.987 131.177C824.025 126.126 826.213 120.402 826.213 111.309C826.213 102.217 824.025 96.4926 819.987 91.4414C816.285 86.8953 809.386 83.0227 801.309 83.0227ZM809.386 124.611C807.703 126.463 804.675 127.978 801.309 127.978C797.776 127.978 794.915 126.463 793.232 124.611C790.203 121.243 789.362 116.192 789.362 111.141C789.362 106.09 790.035 101.039 793.232 97.6712C794.915 95.8191 797.944 94.3037 801.309 94.3037C804.843 94.3037 807.703 95.8191 809.386 97.6712C812.415 101.039 813.256 106.09 813.256 111.141C813.256 116.192 812.415 121.243 809.386 124.611ZM863.232 106.258C858.016 105.416 856.67 105.248 851.79 104.743C848.929 104.406 845.564 103.228 845.564 99.3549C845.564 96.4926 847.415 94.6405 849.602 93.6303C851.621 92.7884 853.304 92.7884 855.155 92.7884C857.847 92.7884 860.54 93.7986 862.222 95.314C863.4 96.661 864.41 98.3447 864.41 100.365H876.693C876.693 96.4926 874.843 92.4516 871.982 89.4209C868.112 85.2116 861.549 83.1911 855.155 83.1911C848.424 83.1911 842.871 85.2116 838.833 88.5791C835.636 91.4414 833.448 95.1456 833.448 100.702C833.448 107.437 838.328 113.498 845.732 115.014C850.444 116.024 855.828 116.361 860.54 117.034C863.905 117.539 865.924 119.56 865.924 122.759C865.924 128.652 859.362 129.494 854.987 129.494C851.285 129.494 848.929 128.82 846.91 127.137C845.227 125.79 844.049 123.264 844.049 120.907H831.934C831.934 125.958 834.458 130.336 837.655 133.366C842.03 137.576 848.088 139.596 854.987 139.596C862.222 139.596 868.953 137.744 873.328 133.366C876.189 130.504 878.04 126.8 878.04 121.58C877.871 112.825 871.645 107.605 863.232 106.258V106.258ZM927.174 87.5688C923.809 84.8748 919.602 83.0227 914.217 83.0227C908.328 83.0227 902.439 85.2116 899.241 90.0944L898.4 84.2014H887.294V158.286H900.251V134.04C902.775 137.071 907.823 139.259 914.217 139.259C919.602 139.259 923.977 137.576 927.342 134.882C933.736 129.662 936.934 121.412 936.934 110.973C936.765 100.87 933.568 92.9568 927.174 87.5688V87.5688ZM920.275 124.274C918.424 126.631 915.563 128.484 911.693 128.484C901.597 128.484 899.578 119.055 899.578 111.309C899.578 103.564 901.597 93.967 911.693 93.967C915.732 93.967 918.424 95.8191 920.275 98.1763C922.967 101.712 923.64 106.595 923.64 111.309C923.64 115.856 922.967 120.738 920.275 124.274ZM968.063 83.0227C960.828 83.0227 954.938 85.7167 950.9 89.7577C945.684 94.9772 943.16 102.722 943.16 111.141C943.16 119.896 946.02 127.473 951.405 132.524C955.611 136.565 960.996 139.091 968.232 139.091C974.962 139.091 981.693 136.902 986.236 131.514C988.255 128.989 990.443 124.779 990.779 121.58H978.496C977.991 123.601 976.981 124.948 975.972 126.126C974.121 127.978 971.933 128.652 968.063 128.652C964.53 128.652 962.006 127.137 960.155 125.284C957.631 122.759 956.116 118.886 956.284 114.845H992.126C992.126 113.667 992.294 111.309 992.294 111.309C992.462 104.575 991.621 98.5131 987.582 92.62C983.207 86.2218 975.972 83.0227 968.063 83.0227ZM956.116 105.753C956.284 102.217 957.126 99.8601 958.977 97.3345C960.828 94.8089 964.025 93.2935 967.895 93.2935C971.597 93.2935 974.289 94.4721 975.972 96.3242C977.991 98.5131 979.169 101.712 979.337 105.753H956.116ZM1013.66 92.4516L1012.49 84.3697H1001.55V137.912H1014.51V110.973C1014.51 102.386 1019.22 95.8191 1028.3 95.8191C1029.82 95.8191 1031.33 95.9875 1032.68 96.3242V84.033C1031.33 83.8646 1029.99 83.6962 1028.64 83.6962C1022.41 83.6962 1016.02 86.2218 1013.66 92.4516V92.4516ZM1039.58 84.3697H1052.7V137.912H1039.58V84.3697ZM1039.07 63.6598H1052.87V76.9613H1039.07V63.6598ZM1081.98 121.075V94.9772H1095.44V84.3697H1081.98V70.7315H1069.02V84.3697H1059.26V94.9772H1069.02V122.254C1069.02 132.524 1074.41 138.754 1085.18 138.754C1089.05 138.754 1092.58 138.249 1096.12 137.239V126.463C1092.58 126.8 1090.39 126.968 1087.7 126.968C1083.83 126.968 1081.98 125.116 1081.98 121.075V121.075ZM1140.87 84.3697L1127.41 123.096L1113.45 84.3697H1099.31L1120.51 137.912L1117.49 145.489C1116.14 148.688 1113.62 149.53 1111.26 149.53C1108.4 149.53 1107.39 149.193 1104.02 148.52V159.296C1106.88 159.969 1109.75 160.643 1113.95 160.643C1123.38 160.643 1127.75 154.245 1130.44 147.173L1154 84.3697H1140.87V84.3697Z" fill="#131544"/>
</g>
<defs>
<clipPath id="clip0">
<rect width="1138" height="148" fill="white" transform="translate(16 15)"/>
</clipPath>
</defs>
</svg>
