<svg width="710" height="177" viewBox="0 0 710 177" fill="none" xmlns="http://www.w3.org/2000/svg">
<rect width="710" height="177" fill="white"/>
<g clip-path="url(#clip0)">
<path d="M41.7055 131.368L26 29.2312L71.286 22.3311C87.7045 19.8147 103.82 31.7325 106.333 48.0742C107.298 54.771 105.98 61.5966 102.591 67.4608C110.428 71.9904 116.4 79.8517 117.821 89.1021C120.314 105.308 108.613 121.166 92.3312 123.648L41.7055 131.368ZM72.09 63.047C74.4052 62.6393 76.4681 61.3461 77.8377 59.444C79.2073 57.5419 79.7747 55.1819 79.4186 52.8688C79.0626 50.5556 77.8113 48.473 75.9324 47.0663C74.0535 45.6596 71.6961 45.0405 69.3645 45.3414L56.3693 47.3243L59.0897 65.0249L72.09 63.047ZM83.3255 102.449C84.4946 102.274 85.6172 101.87 86.6291 101.261C87.641 100.653 88.5223 99.8516 89.2223 98.9033C89.9223 97.955 90.4273 96.8785 90.7083 95.7355C90.9892 94.5925 91.0407 93.4055 90.8597 92.2426C90.4592 89.915 89.1672 87.8329 87.2555 86.4342C85.3439 85.0356 82.9617 84.4296 80.6102 84.7436L62.5484 87.4966L65.2738 105.197L83.3255 102.449Z" fill="#595A5D"/>
<path d="M166.895 72.9023H179.425V126.648H166.895V121.022C161.757 125.803 156.232 128.193 150.319 128.193C142.849 128.193 136.677 125.509 131.802 120.141C126.958 114.658 124.538 107.817 124.541 99.6168C124.541 91.5642 126.962 84.8537 131.802 79.4853C136.643 74.1169 142.711 71.4327 150.006 71.4327C156.286 71.4327 161.922 74.0079 166.915 79.1582L166.895 72.9023ZM137.289 99.6117C137.289 104.762 138.676 108.956 141.45 112.194C142.754 113.769 144.398 115.03 146.261 115.883C148.123 116.737 150.155 117.16 152.205 117.121C156.824 117.121 160.555 115.539 163.4 112.375C166.246 109.104 167.668 104.948 167.668 99.9087C167.668 94.8691 166.246 90.7086 163.4 87.4272C160.555 84.2263 156.859 82.6258 152.312 82.6258C150.27 82.5928 148.247 83.0113 146.388 83.8512C144.529 84.6911 142.88 85.9314 141.561 87.4825C138.716 90.7472 137.292 94.7903 137.289 99.6117V99.6117Z" fill="#595A5D"/>
<path d="M199.716 33.1528V126.351H187.242V33.1528H199.716Z" fill="#595A5D"/>
<path d="M249.189 72.9023H261.719V126.648H249.189V121.022C244.052 125.803 238.526 128.193 232.614 128.193C225.144 128.193 218.971 125.509 214.097 120.141C209.253 114.658 206.832 107.817 206.836 99.6168C206.836 91.5642 209.256 84.8537 214.097 79.4853C218.938 74.1169 225.005 71.4327 232.3 71.4327C238.587 71.4327 244.223 74.0079 249.209 79.1582L249.189 72.9023ZM219.583 99.6117C219.583 104.762 220.97 108.956 223.745 112.194C225.048 113.769 226.693 115.03 228.555 115.883C230.418 116.737 232.45 117.16 234.5 117.121C239.118 117.121 242.85 115.539 245.695 112.375C248.54 109.104 249.963 104.948 249.963 99.9087C249.963 94.8691 248.54 90.7086 245.695 87.4272C242.85 84.2263 239.155 82.6258 234.611 82.6258C232.569 82.5924 230.545 83.0107 228.685 83.8506C226.825 84.6905 225.176 85.931 223.856 87.4825C221.011 90.7472 219.587 94.7903 219.583 99.6117V99.6117Z" fill="#595A5D"/>
<path d="M269.48 72.9024H282.01V77.8648C286.369 73.56 291.284 71.4076 296.755 71.4076C303.039 71.4076 307.937 73.3771 311.449 77.3162C314.483 80.6714 316 86.1338 316 93.7032V126.643H303.465V96.6675C303.465 91.3763 302.725 87.7208 301.245 85.7009C299.766 83.6811 297.141 82.6527 293.372 82.6158C289.236 82.6158 286.298 83.9746 284.559 86.6924C282.82 89.4101 281.977 94.0957 282.031 100.749V126.648H269.48V72.9024Z" fill="#595A5D"/>
<path d="M373.316 50.5564C373.343 48.4345 374.206 46.408 375.719 44.9126C377.232 43.4172 379.274 42.5722 381.406 42.5592C382.479 42.5418 383.543 42.7431 384.535 43.1508C385.526 43.5585 386.423 44.1639 387.171 44.9297C387.943 45.6599 388.555 46.5421 388.967 47.5203C389.379 48.4986 389.581 49.5514 389.562 50.6118C389.58 51.68 389.377 52.7405 388.968 53.728C388.558 54.7155 387.95 55.6093 387.181 56.3543C386.447 57.1244 385.561 57.7343 384.578 58.145C383.596 58.5557 382.538 58.7583 381.472 58.7399C380.396 58.7412 379.331 58.5305 378.338 58.1198C377.345 57.7091 376.443 57.1066 375.685 56.3471C374.927 55.5876 374.328 54.6861 373.922 53.6948C373.517 52.7035 373.312 51.642 373.321 50.5715L373.316 50.5564ZM387.676 72.9023V126.648H375.202V72.9023H387.676Z" fill="#595A5D"/>
<path d="M395.458 72.9024H407.988V77.8648C412.347 73.56 417.262 71.4076 422.733 71.4076C429.013 71.4076 433.901 73.3771 437.397 77.3162C440.431 80.6714 441.948 86.1338 441.948 93.7032V126.643H429.438V96.6675C429.438 91.3763 428.7 87.7208 427.223 85.7009C425.747 83.6811 423.122 82.6527 419.35 82.6158C415.211 82.6158 412.273 83.9746 410.537 86.6924C408.801 89.4101 407.958 94.0957 408.008 100.749V126.648H395.458V72.9024Z" fill="#595A5D"/>
<path d="M503.42 125.38C503.42 127.917 503.335 130.151 503.167 132.084C503.031 133.796 502.8 135.5 502.474 137.187C501.677 141.054 499.882 144.648 497.266 147.615C492.388 153.205 485.68 156 477.141 156C469.937 156 464.006 154.061 459.347 150.182C454.544 146.189 451.771 140.68 451.029 133.654H463.559C464.038 136.301 464.832 138.343 465.941 139.779C468.53 143.134 472.3 144.812 477.252 144.812C486.381 144.812 490.945 139.257 490.945 128.148V120.644C485.99 125.677 480.279 128.193 473.814 128.193C466.462 128.193 460.438 125.544 455.742 120.246C451.023 114.878 448.663 108.168 448.663 100.115C448.663 92.2839 450.854 85.6271 455.236 80.1446C459.956 74.33 466.2 71.4227 473.971 71.4227C477.183 71.3569 480.37 71.9998 483.303 73.305C486.236 74.6102 488.842 76.5455 490.935 78.972V72.9023H503.41L503.42 125.38ZM491.446 99.9137C491.446 94.6997 490.04 90.5308 487.229 87.4071C485.879 85.8535 484.2 84.6178 482.312 83.7892C480.424 82.9606 478.374 82.5598 476.312 82.6158C471.592 82.6158 467.859 84.3605 465.112 87.8499C462.634 90.9703 461.395 95.01 461.395 99.9691C461.395 104.858 462.634 108.86 465.112 111.977C467.808 115.393 471.542 117.101 476.312 117.101C481.082 117.101 484.851 115.375 487.618 111.922C490.167 108.802 491.442 104.799 491.446 99.9137V99.9137Z" fill="#595A5D"/>
<path d="M569.28 105.958H532.661L523.104 126.648H509.189L551.542 36.092L592.399 126.638H578.24L569.28 105.958ZM564.017 93.8793L551.32 64.9051L538.016 93.8743L564.017 93.8793Z" fill="#595A5D"/>
<path d="M666.426 72.9023V53.2087H654.892H653.957H653.952V72.9023H648.632H644.253V84.493H648.632H653.952V126.648H653.957H655.013H666.426V84.493H676.129V72.9023H666.426Z" fill="#595A5D"/>
<path d="M362.257 112.491L362.111 112.657C359.235 115.737 355.389 117.279 350.572 117.282C345.755 117.286 341.896 115.722 338.997 112.592C336.156 109.508 334.733 105.314 334.73 100.009C334.73 95.0772 336.189 91.0509 339.109 87.9305C342.028 84.8101 345.837 83.2499 350.536 83.2499C355.313 83.2499 359.159 84.8101 362.075 87.9305C362.165 87.746 362.283 87.5763 362.424 87.4272C364.952 84.79 367.481 82.188 369.882 79.4652C364.512 74.6068 358.06 72.176 350.526 72.1726C342.611 72.1726 335.903 74.8568 330.401 80.2252C327.74 82.7356 325.632 85.769 324.21 89.1332C322.789 92.4973 322.085 96.1187 322.144 99.7678C322.144 107.898 324.841 114.648 330.234 120.02C335.628 125.462 342.319 128.183 350.309 128.183C358.183 128.183 364.856 125.633 370.327 120.533L362.257 112.491Z" fill="#595A5D"/>
<path d="M632.143 112.491L631.996 112.657C629.117 115.737 625.271 117.279 620.457 117.282C615.644 117.286 611.797 115.725 608.918 112.602C606.073 109.518 604.651 105.324 604.651 100.019C604.651 95.0872 606.109 91.061 609.025 87.9406C611.94 84.8202 615.751 83.26 620.457 83.26C625.234 83.26 629.08 84.8202 631.996 87.9406C632.086 87.7575 632.202 87.588 632.34 87.4373C634.868 84.8001 637.397 82.1981 639.803 79.4753C634.447 74.6236 627.995 72.1961 620.447 72.1927C612.535 72.1927 605.827 74.8769 600.322 80.2453C597.66 82.7555 595.551 85.7888 594.129 89.1529C592.707 92.517 592.002 96.1386 592.06 99.7879C592.06 107.918 594.757 114.668 600.15 120.04C605.544 125.482 612.235 128.203 620.225 128.203C628.096 128.203 634.769 125.653 640.243 120.554C637.547 117.863 634.846 115.175 632.143 112.491V112.491Z" fill="#595A5D"/>
<path d="M26 126.638H129.132V142.925H26V126.638Z" fill="#2B9199"/>
<path d="M670.537 121.188C670.545 120.06 670.888 118.961 671.523 118.027C672.158 117.094 673.057 116.369 674.106 115.943C675.154 115.517 676.306 115.41 677.416 115.636C678.526 115.861 679.544 116.408 680.341 117.208C681.139 118.009 681.681 119.026 681.898 120.132C682.116 121.239 681.999 122.384 681.563 123.425C681.127 124.465 680.391 125.354 679.449 125.978C678.506 126.603 677.399 126.936 676.266 126.935C675.509 126.937 674.76 126.79 674.061 126.501C673.362 126.212 672.727 125.788 672.194 125.254C671.661 124.719 671.24 124.084 670.956 123.386C670.671 122.688 670.529 121.941 670.537 121.188V121.188ZM671.791 121.188C671.799 122.068 672.069 122.926 672.566 123.654C673.063 124.383 673.766 124.948 674.586 125.279C675.405 125.61 676.305 125.692 677.171 125.515C678.038 125.338 678.832 124.91 679.455 124.284C680.077 123.659 680.499 122.864 680.668 122C680.837 121.135 680.746 120.241 680.405 119.428C680.064 118.616 679.489 117.922 678.752 117.435C678.016 116.947 677.151 116.687 676.266 116.688C675.673 116.685 675.086 116.799 674.539 117.025C673.991 117.25 673.495 117.582 673.078 118.001C672.661 118.42 672.332 118.918 672.111 119.465C671.89 120.012 671.782 120.598 671.791 121.188V121.188ZM678.931 124.142H677.56L676.165 121.766H675.118V124.167H673.869V118.178H676.772C678.152 118.178 679.098 118.425 679.098 120.005C679.126 120.231 679.104 120.46 679.034 120.677C678.964 120.894 678.848 121.093 678.693 121.261C678.538 121.428 678.348 121.56 678.137 121.648C677.926 121.735 677.698 121.775 677.469 121.766L678.931 124.142ZM676.807 120.699C677.474 120.699 677.884 120.553 677.884 119.899C677.884 119.245 677.085 119.25 676.499 119.25H675.118V120.699H676.807Z" fill="#595A5D"/>
</g>
<defs>
<clipPath id="clip0">
<rect width="656" height="134" fill="white" transform="translate(26 22)"/>
</clipPath>
</defs>
</svg>
