<svg width="576" height="177" viewBox="0 0 576 177" fill="none" xmlns="http://www.w3.org/2000/svg">
<rect width="576" height="177" fill="white"/>
<g clip-path="url(#clip0)">
<path d="M77.7685 20H87.2417C102.753 20.7291 118.368 22.3434 133.307 26.7177C142.103 29.3215 150.744 32.9147 158.187 38.3306C165.474 43.5381 171.408 50.9328 173.854 59.6294C176.873 70.1487 174.999 81.5011 170.835 91.4475C164.381 106.81 153.346 119.881 140.854 130.765C128.466 141.284 114.256 149.928 98.6408 154.719C93.1234 156.438 87.3979 157.531 81.6202 158.052H72.6154C63.4024 157.271 54.2415 153.99 47.1105 147.949C39.8234 141.857 34.6704 133.525 31.2351 124.672C26.3943 112.174 24.6767 98.686 24 85.3026V73.8981C24.6246 64.0558 26.1341 53.5366 32.3802 45.5691C35.4512 41.6634 39.8234 38.9555 44.5601 37.6536C44.2998 48.5894 44.0396 59.5253 44.1437 70.4611C44.3519 80.5117 45.0806 90.6143 47.8393 100.352C49.7131 106.914 52.68 113.319 57.3125 118.423C62.8819 124.724 70.8978 128.473 79.1218 129.827C87.1376 131.129 95.5698 131.129 103.377 128.525C112.122 125.713 119.825 119.777 124.874 112.122C131.225 102.748 133.827 90.9789 132.162 79.8347C130.808 70.4611 126.332 61.6083 119.773 54.8385C115.557 50.8808 110.717 47.4958 105.407 45.2045C97.1313 41.6634 87.6581 40.7781 78.9136 43.1736C78.9136 50.2038 78.9136 57.286 78.9136 64.3162C87.3458 60.4626 98.3806 61.8166 105.043 68.5343C113.371 77.1268 113.423 92.0724 105.512 100.925C102.024 104.831 96.8711 107.174 91.666 107.487C86.2527 107.799 80.4751 107.07 75.7905 104.05C72.0429 101.602 69.5965 97.5924 68.3473 93.3743C66.6296 87.8023 66.4214 81.9698 66.3173 76.1894C66.3173 62.2853 66.2652 48.3811 66.3173 34.477C66.5255 30.8317 66.3693 26.874 68.3993 23.6453C70.4293 20.7291 74.4372 20.3645 77.7685 20Z" fill="#33CC66"/>
<path d="M480.225 40.7781C485.274 38.9555 490.271 37.1849 495.32 35.3622C495.32 56.1404 495.32 76.8664 495.32 97.6445C495.216 99.4151 495.84 101.55 497.714 102.175C499.952 102.8 502.19 101.758 504.377 101.394C504.949 105.039 505.47 108.685 505.938 112.33C500.108 114.569 493.394 115.454 487.46 112.955C484.233 111.653 481.839 108.685 480.954 105.352C479.965 102.175 480.225 98.7902 480.225 95.5094C480.225 77.283 480.225 59.0045 480.225 40.7781Z" fill="#384145"/>
<path d="M348.485 59.8377C352.336 58.5879 356.604 58.64 360.456 59.7857C364.256 60.9834 367.327 64.0038 368.888 67.649C370.866 72.1275 371.335 77.1268 371.283 82.0219C371.283 92.5932 371.283 103.165 371.283 113.736C366.182 113.736 361.133 113.736 356.084 113.736C356.084 103.165 356.084 92.5411 356.084 81.9698C356.032 79.2619 355.772 76.2936 354.002 74.1064C352.128 71.8151 348.537 71.3985 345.986 72.8045C343.227 74.3147 341.302 77.0226 339.688 79.6264C338.595 81.0324 339.115 82.8551 339.011 84.5215C339.272 94.2596 339.063 103.946 339.167 113.684C334.067 113.736 328.913 113.684 323.812 113.736C323.812 95.7177 323.812 77.6996 323.812 59.6815C328.549 59.6815 333.286 59.6815 338.022 59.6815C338.231 62.2332 338.126 64.7328 338.387 67.2845C341.302 64.3162 344.425 61.1917 348.485 59.8377Z" fill="#384145"/>
<path d="M442.384 61.5562C447.693 58.4316 454.304 58.4316 460.134 59.9418C465.807 61.3999 470.492 65.4618 473.563 70.3569C470.179 72.8566 466.692 75.252 463.257 77.7516C461.591 75.3562 459.353 73.2211 456.49 72.3358C454.148 71.6067 451.337 71.1381 449.151 72.492C447.329 73.6898 446.548 77.1267 448.943 78.1683C454.356 80.7199 460.55 81.2407 465.859 84.0007C469.763 85.8233 473.511 89.052 474.239 93.4784C475.124 99.2588 473.406 105.612 469.034 109.674C465.026 113.527 459.301 115.142 453.887 115.246C449.463 115.298 444.935 114.777 440.979 112.798C436.815 110.663 433.64 106.914 431.245 102.956C434.785 100.457 438.272 97.8528 441.864 95.4052C444.154 98.9984 447.902 101.967 452.326 102.279C455.449 102.644 459.509 101.55 460.602 98.2173C461.279 96.1864 459.197 94.8845 457.583 94.2596C451.389 91.8641 444.466 91.083 438.845 87.2294C435.826 85.1464 433.64 81.7094 433.744 77.96C433.484 71.3464 436.711 64.7328 442.384 61.5562Z" fill="#384145"/>
<path d="M378.882 59.6815C383.983 59.7335 389.084 59.6815 394.237 59.6815C394.237 70.9298 394.237 82.1781 394.237 93.4264C394.289 95.6135 394.758 97.9049 396.267 99.5713C398.401 101.55 401.785 101.811 404.387 100.561C406.938 99.3109 408.864 97.0196 410.425 94.6762C410.737 94.1033 411.206 93.5826 411.154 92.9056C411.206 81.8135 411.102 70.7735 411.206 59.6815C416.307 59.7335 421.408 59.6815 426.509 59.6815C426.509 77.6996 426.509 95.7177 426.509 113.736C421.928 113.736 417.296 113.736 412.715 113.736C412.455 111.444 412.247 109.153 411.987 106.862C409.54 108.841 407.458 111.288 404.595 112.746C399.911 115.454 394.081 115.767 389.032 114.1C385.128 112.798 382.214 109.466 380.86 105.716C378.934 100.613 378.83 95.0928 378.882 89.729C378.882 79.7305 378.83 69.732 378.882 59.6815Z" fill="#384145"/>
<path d="M502.451 59.6815C508.072 59.6815 513.694 59.6815 519.315 59.6815C523.063 71.9192 526.498 84.2611 529.777 96.655C533.629 84.4173 537.116 72.0233 540.552 59.6815C546.017 59.6815 551.535 59.6815 557 59.6815V60.4105C549.296 81.9177 541.437 103.373 533.681 124.828C532.068 129.411 529.413 134.097 524.78 136.128C518.586 138.732 511.612 137.795 505.366 135.972C506.042 131.858 506.771 127.692 507.448 123.578C509.738 123.995 511.976 124.724 514.266 124.88C516.556 124.984 518.17 122.953 519.107 121.078C520.564 117.954 521.605 114.673 522.803 111.444C516.088 94.2596 509.269 76.9705 502.451 59.6815Z" fill="#384145"/>
<path d="M316.786 77.8038C315.172 71.5026 311.372 65.514 305.595 62.1811C300.286 59.0566 293.883 58.4838 287.845 59.1608C282.068 59.9419 276.55 62.9102 272.907 67.4928C267.181 74.6792 265.099 84.5215 266.921 93.5306C268.17 100.092 271.554 106.497 277.071 110.507C283.213 115.038 291.437 115.975 298.776 114.361C304.71 113.111 309.967 109.309 313.194 104.206C318.087 96.4468 319.128 86.5525 316.786 77.8038ZM299.088 98.3736C297.058 100.873 293.675 102.331 290.5 101.55C287.533 100.873 285.243 98.5298 283.838 95.926C281.131 90.8226 280.975 84.5736 283.057 79.2098C284.306 76.0332 286.752 73.117 290.188 72.3358C293.675 71.4506 297.683 72.8566 299.765 75.877C302.003 79.0015 302.628 82.9072 302.732 86.6566C302.732 90.7706 301.795 95.1449 299.088 98.3736Z" fill="#384145"/>
<path d="M262.288 87.1253C261.247 80.9283 256.355 76.0332 250.681 73.6898C253.648 71.1902 256.615 68.1698 257.292 64.16C258.281 57.9109 256.615 50.9849 251.93 46.5585C246.725 41.5071 239.23 39.7366 232.151 39.5283C223.146 39.4762 214.089 39.5283 205.085 39.4762C205.033 64.212 205.085 88.9479 205.085 113.684C216.015 113.684 226.946 113.684 237.929 113.684C243.915 113.423 250.213 112.278 255.105 108.528C261.612 103.685 263.277 94.7803 262.288 87.1253ZM220.752 53.4324C224.239 53.4324 227.675 53.4324 231.162 53.4324C233.713 53.4324 236.315 53.849 238.449 55.3592C241.572 57.4422 242.457 62.129 240.479 65.2536C239.074 67.4407 236.315 68.326 233.817 68.3781C229.444 68.4302 225.124 68.3781 220.752 68.3781C220.752 63.4309 220.752 58.4317 220.752 53.4324ZM246.413 92.2807C246.205 94.2596 245.372 96.3947 243.602 97.4883C241.312 98.8943 238.501 99.1547 235.899 99.2588C230.85 99.2588 225.801 99.2588 220.752 99.2588C220.752 93.5305 220.752 87.8022 220.752 82.0739C225.801 82.0739 230.85 82.0739 235.899 82.0739C238.814 82.126 241.885 82.6468 244.175 84.6256C246.205 86.5524 246.777 89.6249 246.413 92.2807Z" fill="#384145"/>
</g>
<defs>
<clipPath id="clip0">
<rect width="533" height="138" fill="white" transform="translate(24 20)"/>
</clipPath>
</defs>
</svg>
