<svg id="Layer_1" data-name="Layer 1" xmlns="http://www.w3.org/2000/svg" viewBox="0 0 491.31 632.65"><defs><style>.cls-1{fill:#fee465;}.cls-2{fill:none;stroke:#231f20;stroke-linecap:round;stroke-linejoin:round;stroke-width:8px;}</style></defs><title>icon-lightbulb</title><path class="cls-1" d="M335.68,491.13c0-92.67,133.28-109.7,133.28-259.76C469,114.07,374,19.06,256.63,19s-212.28,95-212.28,212.36c0,145.34,136.11,165.34,136.11,259.91Z"/><path class="cls-2" d="M313.68,487.32C313.68,394.65,447,377.61,447,227.56c0-117.31-95-212.32-212.33-212.35s-212.28,95-212.28,212.37c0,145.33,136.11,165.33,136.11,259.91Z"/><path class="cls-2" d="M170.61,487.55c-.71,2.79-1.07,13.1-1.07,16.1v8.19a13.54,13.54,0,0,0,3.38,9.56l-3.38,6.77a16.29,16.29,0,0,0,1.58,7.33l-1.58,9a13.67,13.67,0,0,0,3.58,9.76l-1.23,7.08c0,6.28,2.58,10.27,7.42,12.84l-.79,4.83c0,9.58,6.55,13.14,18.68,14.42l-.58,4.68c0,13.45,15.08,17.58,41.35,17.58s44-4.13,44-17.58l-.61-4.92C293.15,591.76,300,588.09,300,579l-.85-5.29c4.83-2.57,7.48-6.48,7.48-12.38l-1.15-6.7A14.56,14.56,0,0,0,309,544.52l-1.66-9.33a14.65,14.65,0,0,0,1.66-7l-3.36-6.69a13.85,13.85,0,0,0,3.36-9.64v-8.19c0-4.75-.95-12-2.65-16.16"/><path class="cls-2" d="M172.15,517.45c.62.29,1.22.59,1.89.83s1.4.4,2.12.6,1.29.4,2,.54c1,.21,2.09.32,3.14.43.37,0,.73.13,1.13.16h.39c.79.05,2.38.16,4.81.27,12.52.58,81.87,2,118.3-2.13"/><path class="cls-2" d="M172.4,535.36c.63.29,1.23.59,1.9.83s1.4.41,2.12.61,1.29.4,2,.53a30.55,30.55,0,0,0,3.13.43c.38,0,.74.13,1.14.17h.39c.79,0,2.38.15,4.81.26,12.52.58,81.87,2,118.3-2.12"/><path class="cls-2" d="M172.4,553.28c.63.29,1.23.59,1.9.83s1.4.41,2.12.61,1.29.39,2,.53a30.55,30.55,0,0,0,3.13.43c.38,0,.74.13,1.14.16h.39c.79,0,2.38.16,4.81.27,12.52.58,81.87,2,118.3-2.12"/><path class="cls-2" d="M177.9,573.76h.39c.79.05,2.39.15,4.81.27,12.52.57,81.87,2,118.31-2.13"/><path class="cls-2" d="M193.4,592.4c.79.05,54.78,4.49,91.21.32"/></svg>